<svg width="47" height="45" viewBox="0 0 47 45" fill="none" xmlns="http://www.w3.org/2000/svg">
<path d="M8.89504 3.8584C8.25246 4.05176 7.44465 4.56152 7.0132 5.04492C6.67355 5.40527 6.27883 6.15235 6.05851 6.81153C5.73722 7.76953 5.3425 7.96289 3.6259 8.01563C2.46008 8.05078 2.29484 8.07715 1.82668 8.28809C1.22082 8.56934 0.532341 9.23731 0.247771 9.82617L0.0458179 10.2393L0.0182789 24.2578C-8.05176e-05 34.084 0.0274585 38.4434 0.0917164 38.8389C0.312029 40.0518 1.00969 40.834 2.20304 41.168C2.64367 41.291 4.38781 41.3086 19.2314 41.3086C37.4347 41.3086 36.223 41.3438 37.4347 40.7637C38.1599 40.4209 39.0595 39.6299 39.445 39.0059C39.6378 38.707 41.0882 34.875 43.3372 28.7402L46.9357 18.9404L46.9448 18.1934C46.954 17.5869 46.9173 17.3672 46.7429 17.0068C46.3206 16.1279 45.4945 15.5566 44.4204 15.3809C44.0991 15.3369 42.915 15.293 41.795 15.293H39.7571L39.7296 12.8057L39.7021 10.3272L39.445 9.79102C39.1329 9.14942 38.6005 8.63086 37.912 8.28809L37.4071 8.04199L29.4667 7.99805C20.8929 7.9541 21.4437 7.98047 20.6267 7.47949C20.4339 7.36524 19.9841 6.87305 19.5986 6.37207C18.7724 5.28223 18.038 4.61426 17.2394 4.24512C16.1286 3.71777 15.8808 3.69141 12.4843 3.7002C9.79465 3.7002 9.34484 3.71777 8.89504 3.8584ZM15.8624 6.32813C16.5417 6.62696 16.7987 6.84668 17.579 7.86621C18.4603 9 18.9835 9.45703 19.8739 9.8877C21.1132 10.4678 20.9021 10.459 29.2648 10.459C36.6911 10.459 36.8105 10.459 36.9941 10.6348C37.1685 10.8018 37.1777 10.9248 37.1777 13.0518V15.293L24.1241 15.3105C11.7224 15.3369 11.0339 15.3457 10.5566 15.4951C9.33566 15.8906 8.13312 16.7695 7.58234 17.6924C7.43547 17.9209 6.26047 21.0234 4.94777 24.5918L2.57941 31.0693L2.57023 20.9004V10.7314L2.77219 10.5996C2.92824 10.4941 3.21281 10.459 3.91047 10.459C5.53527 10.459 6.3798 10.1865 7.29777 9.38672C7.86691 8.88574 8.17902 8.4375 8.43605 7.70801C8.74816 6.84668 8.9134 6.60059 9.30812 6.37207L9.68449 6.15235H12.5761C15.2474 6.15235 15.4952 6.16992 15.8624 6.32813ZM44.2552 17.8418C44.347 17.8945 44.4296 18.0264 44.4296 18.1406C44.4296 18.4482 37.398 37.582 37.1777 37.8809C36.9757 38.1533 36.3974 38.5576 35.9568 38.7422C35.764 38.8213 31.9085 38.8477 19.3232 38.8477C10.3179 38.8477 2.89152 38.8213 2.8089 38.7949C2.72629 38.7598 2.66203 38.6367 2.66203 38.4961C2.66203 38.3643 4.25012 33.9082 6.19621 28.5996L9.72121 18.9404L10.2261 18.4922C11.0982 17.7012 9.46418 17.7715 27.796 17.7627C38.8575 17.7539 44.1359 17.7803 44.2552 17.8418Z" fill="#15406B"/>
</svg>
