<svg width="48" height="46" xmlns="http://www.w3.org/2000/svg" fill="none">

 <g>
  <title>Слой 1</title>
  <g stroke="null" id="svg_6">
   <path stroke="null" id="svg_1" fill="#15406B" d="m9.27158,4.08731c-0.8669,0.24229 -1.49496,0.75813 -1.80456,1.48498l-0.18577,0.44549l0,17.96824l0,17.96826l0.18577,0.45331c0.24769,0.56266 0.83151,1.12541 1.43304,1.35994l0.45999,0.18755l14.63996,0l14.63994,0l0.45999,-0.18755c0.60152,-0.23453 1.1854,-0.79728 1.43308,-1.35994l0.18579,-0.45331l-0.00887,-15.21714l0,-15.21713l-3.93645,-3.77497l-3.94522,-3.76716l-11.59705,0.00782c-9.10236,0 -11.68541,0.02344 -11.95963,0.1016zm21.89365,5.0333c0,2.86054 0.00878,3.12627 0.15918,3.36856c0.33619,0.5471 0.38922,0.55493 3.92758,0.55493l3.16688,0l0,14.28703c0,12.21592 -0.01774,14.31051 -0.12389,14.44335c-0.1238,0.1485 -0.37148,0.1485 -14.29498,0.1485c-13.92345,0 -14.17113,0 -14.29498,-0.1485c-0.10615,-0.13284 -0.12384,-2.68074 -0.12384,-17.78845c0,-18.40592 -0.00884,-17.80412 0.35384,-17.92135c0.07077,-0.02344 4.88298,-0.0469 10.6859,-0.0469l10.54431,-0.00781l0,3.11064zm4.12214,0.2501l1.6719,1.60222l-1.63652,0.02344c-0.89346,0.00781 -1.68067,0 -1.74267,-0.01563c-0.08841,-0.03126 -0.11493,-0.41423 -0.11493,-1.65693c0,-0.88317 0.03538,-1.5944 0.07954,-1.57876c0.03538,0.00781 0.82269,0.74249 1.74267,1.62566z"/>
   <path stroke="null" id="svg_2" fill="#15406B" d="m13.33189,15.04491c-0.64577,0.28133 -0.62804,1.05512 0.02651,1.35211c0.14153,0.06246 3.01648,0.08595 10.2436,0.08595c10.81851,0 10.41165,0.01566 10.65933,-0.38294c0.23882,-0.40643 0.00878,-0.95352 -0.45999,-1.09427c-0.18579,-0.06246 -3.35267,-0.08595 -10.23473,-0.08595c-8.784,0 -9.99591,0.01566 -10.23473,0.12509z"/>
   <path stroke="null" id="svg_3" fill="#15406B" d="m13.11072,20.383c-0.18579,0.17198 -0.25655,0.30482 -0.25655,0.51586c0,0.21104 0.07077,0.34388 0.25655,0.51577l0.25646,0.2267l10.21709,0l10.21699,0l0.2742,-0.20321c0.37158,-0.27359 0.38922,-0.74248 0.03538,-1.06295l-0.23882,-0.21878l-10.25238,0l-10.25247,0l-0.25646,0.22661z"/>
   <path stroke="null" id="svg_4" fill="#15406B" d="m13.11082,25.38503c-0.35384,0.31265 -0.35384,0.69559 0,1.03947l0.25646,0.25793l9.89863,0.02349c5.44021,0.01557 10.05772,0 10.26124,-0.02349c0.78721,-0.10161 1.10567,-0.82059 0.56614,-1.2974l-0.25655,-0.22661l-10.23473,0l-10.23473,0l-0.25646,0.22661z"/>
   <path stroke="null" id="svg_5" fill="#15406B" d="m13.38483,30.32452c-0.71645,0.2501 -0.6988,1.17239 0.01774,1.39117c0.18579,0.06255 3.35257,0.08603 10.21699,0.08603c10.64159,0 10.40278,0.00783 10.63282,-0.3752c0.05303,-0.09378 0.09728,-0.2735 0.09728,-0.40643c0,-0.13284 -0.04425,-0.31256 -0.09728,-0.40643c-0.23004,-0.38294 0.01764,-0.37511 -10.6682,-0.36728c-6.29828,0 -10.05781,0.03123 -10.19935,0.07812z"/>
  </g>
 </g>
</svg>