<svg width="48" height="48" viewBox="0 0 48 48" fill="none" xmlns="http://www.w3.org/2000/svg">
<g clip-path="url(#clip0_18496_17)">
<path d="M10.35 11.1C10.02 11.22 9.09002 12.03 8.25002 12.87L6.75002 14.43V18.63C6.75002 24.48 5.82002 24 17.1 24C25.44 24 26.07 23.97 26.73 23.43C27.42 22.89 27.45 22.68 27.54 18.24C27.66 13.08 27.39 11.67 26.25 11.16C25.35 10.74 11.31 10.68 10.35 11.1ZM26.04 12.36C26.55 12.87 26.55 21.93 26.04 22.44C25.53 22.95 8.67002 22.95 8.16002 22.44C7.92002 22.2 7.80002 20.88 7.80002 18.51V14.91L9.27002 13.47L10.71 12H18.21C23.61 12 25.77 12.09 26.04 12.36Z" fill="#C11540"/>
<path d="M20.67 14.37C19.86 15.18 19.8 15.42 19.8 17.49C19.8 19.5 19.89 19.86 20.58 20.67C21.57 21.87 23.07 21.96 24.15 20.85C24.84 20.19 24.9 19.89 24.9 17.64C24.9 14.97 24.84 14.79 23.7 14.01C22.62 13.26 21.66 13.38 20.67 14.37ZM23.34 15.06C23.55 15.27 23.7 16.29 23.7 17.55C23.7 19.77 23.4 20.4 22.41 20.4C21.45 20.4 21.03 19.5 21 17.49C21 16.2 21.15 15.51 21.48 15.18C22.02 14.61 22.83 14.55 23.34 15.06Z" fill="#C11540"/>
<path d="M10.65 14.46C10.32 14.67 9.69002 14.79 9.24002 14.73C8.52002 14.67 8.40002 14.76 8.40002 15.45C8.40002 16.2 8.49002 16.26 9.30002 16.14C10.44 15.96 11.49 16.86 10.59 17.25C10.29 17.37 9.69002 17.46 9.24002 17.43C8.52002 17.37 8.40002 17.46 8.40002 18.15C8.40002 18.9 8.49002 18.96 9.30002 18.84C10.38 18.69 11.07 19.26 10.53 19.89C10.35 20.13 9.84002 20.25 9.30002 20.16C8.49002 20.04 8.40002 20.1 8.40002 20.85C8.40002 21.6 8.49002 21.66 9.30002 21.54C9.84002 21.45 10.35 21.57 10.53 21.81C10.77 22.08 11.7 22.2 13.65 22.2C15.6 22.2 16.53 22.08 16.77 21.81C16.95 21.57 17.46 21.45 18 21.54C18.81 21.66 18.9 21.6 18.9 20.85C18.9 20.1 18.81 20.04 18 20.16C16.86 20.34 15.81 19.44 16.71 19.05C17.01 18.93 17.61 18.84 18.09 18.87C18.78 18.93 18.9 18.84 18.9 18.15C18.9 17.46 18.78 17.37 18.09 17.43C17.61 17.49 16.98 17.37 16.65 17.16L16.05 16.8L16.65 16.44C16.98 16.23 17.61 16.11 18.09 16.17C18.78 16.23 18.9 16.14 18.9 15.45C18.9 14.76 18.78 14.67 18.09 14.73C17.61 14.79 16.95 14.67 16.59 14.46C15.75 14.01 11.43 14.01 10.65 14.46ZM12 15.45C12 15.69 11.82 15.9 11.58 15.9C11.07 15.9 10.74 15.48 11.01 15.18C11.37 14.82 12 15 12 15.45ZM13.2 15.45C13.2 15.69 13.08 15.9 12.9 15.9C12.75 15.9 12.6 15.69 12.6 15.45C12.6 15.21 12.75 15 12.9 15C13.08 15 13.2 15.21 13.2 15.45ZM16.2 15.45C16.2 15.69 15.93 15.9 15.6 15.9C15.27 15.9 15 15.69 15 15.45C15 15.21 15.27 15 15.6 15C15.93 15 16.2 15.21 16.2 15.45ZM12 18.15C12 18.39 11.82 18.6 11.58 18.6C11.07 18.6 10.74 18.18 11.01 17.88C11.37 17.52 12 17.7 12 18.15ZM13.2 18.15C13.2 18.39 13.08 18.6 12.9 18.6C12.75 18.6 12.6 18.39 12.6 18.15C12.6 17.91 12.75 17.7 12.9 17.7C13.08 17.7 13.2 17.91 13.2 18.15ZM16.2 18.15C16.2 18.39 15.93 18.6 15.6 18.6C15.27 18.6 15 18.39 15 18.15C15 17.91 15.27 17.7 15.6 17.7C15.93 17.7 16.2 17.91 16.2 18.15ZM12 20.85C12 21.09 11.82 21.3 11.58 21.3C11.07 21.3 10.74 20.88 11.01 20.58C11.37 20.22 12 20.4 12 20.85ZM13.2 20.85C13.2 21.09 13.08 21.3 12.9 21.3C12.75 21.3 12.6 21.09 12.6 20.85C12.6 20.61 12.75 20.4 12.9 20.4C13.08 20.4 13.2 20.61 13.2 20.85ZM16.2 20.85C16.2 21.09 15.93 21.3 15.6 21.3C15.27 21.3 15 21.09 15 20.85C15 20.61 15.27 20.4 15.6 20.4C15.93 20.4 16.2 20.61 16.2 20.85Z" fill="#C11540"/>
<path d="M34.89 25.2C33.09 25.56 30.75 26.64 29.97 27.48C29.31 28.17 29.31 28.2 29.85 28.8C30.39 29.37 30.39 29.37 31.32 28.59C32.94 27.21 34.44 26.7 36.93 26.7C38.76 26.7 39.48 26.85 40.71 27.45C41.55 27.87 42.45 28.47 42.75 28.8C43.14 29.25 43.41 29.31 43.83 29.07C44.58 28.68 44.55 28.14 43.74 27.39C42.66 26.43 40.8 25.59 38.85 25.23C36.9 24.87 36.69 24.87 34.89 25.2Z" fill="#C11540"/>
<path d="M33.75 28.77C33.09 29.07 32.28 29.55 31.95 29.79C31.38 30.24 31.38 30.3 31.86 30.78C32.34 31.29 32.46 31.26 33.84 30.51C36.12 29.25 39.09 29.46 40.68 30.93C41.28 31.5 41.31 31.5 41.82 30.93C42.51 30.18 42.3 29.85 40.5 28.95C38.61 27.99 35.58 27.93 33.75 28.77Z" fill="#C11540"/>
<path d="M34.92 31.62C33.69 32.16 33.51 32.52 34.17 33.12C34.65 33.57 34.77 33.57 35.7 33.09C36.63 32.64 36.81 32.64 38.04 33.09C39.21 33.48 39.45 33.51 39.81 33.12C40.38 32.58 40.11 32.19 38.79 31.65C37.47 31.11 36.15 31.08 34.92 31.62Z" fill="#C11540"/>
<path d="M35.91 34.68C35.79 34.8 35.7 35.28 35.7 35.76C35.7 36.39 35.91 36.72 36.45 36.96C37.47 37.41 38.16 36.81 38.04 35.58C37.95 34.8 37.8 34.65 37.05 34.56C36.54 34.5 36.03 34.56 35.91 34.68Z" fill="#C11540"/>
<path d="M19.8 0.180004C16.86 0.750004 12.48 2.61 10.08 4.29C8.61002 5.31 5.73002 8.13 4.65002 9.6C3.30002 11.43 1.38002 15.33 0.690024 17.55C0.270024 18.96 0.150024 20.37 0.150024 24C0.150024 29.28 0.450024 30.66 2.43002 34.65C3.96002 37.62 5.16002 39.3 7.41002 41.43C9.63002 43.53 10.47 44.1 13.38 45.57C17.34 47.55 18.72 47.85 24 47.85C29.28 47.85 30.66 47.55 34.62 45.57C37.53 44.1 38.37 43.53 40.59 41.43C42.84 39.3 44.04 37.62 45.57 34.65C47.55 30.66 47.85 29.28 47.85 24C47.85 18.72 47.55 17.34 45.57 13.38C44.1 10.47 43.53 9.63 41.43 7.41C39.42 5.28 37.71 4.02 34.95 2.58C31.29 0.690004 29.46 0.240004 24.75 0.150004C22.44 0.0900042 20.22 0.120004 19.8 0.180004ZM29.97 2.7C34.32 3.93 38.61 6.75 41.25 10.2L42.66 12L41.79 13.38L40.95 14.73L34.65 14.67C28.59 14.58 28.35 14.61 28.35 15.18C28.35 15.54 28.56 15.75 28.89 15.72C29.16 15.72 32.16 15.69 35.52 15.66L41.64 15.6L42.54 14.4L43.41 13.2L43.8 14.04C44.01 14.49 44.37 15.3 44.61 15.84L45.03 16.83L36.69 16.77C28.41 16.74 28.35 16.74 28.26 17.37C28.2 17.73 28.32 18 28.56 18C28.77 18.03 32.61 18 37.08 18C44.22 17.97 45.24 18.03 45.42 18.45C45.57 18.87 44.7 18.93 37.26 18.9C32.7 18.9 28.77 18.9 28.56 18.9C28.32 18.9 28.2 19.17 28.26 19.53C28.35 20.16 28.41 20.16 37.14 20.13C45.87 20.07 45.9 20.07 45.9 20.7C45.9 21.33 45.87 21.33 37.14 21.27C28.89 21.21 28.35 21.24 28.35 21.75C28.35 22.26 28.89 22.29 37.32 22.23L46.29 22.17L46.08 24.96C45.78 29.34 45.57 29.79 42.72 32.55L40.2 34.98V37.11V39.27L38.04 41.04C36.84 42 35.4 43.05 34.89 43.32L33.9 43.83V41.91C33.9 40.86 34.05 39.87 34.23 39.69C34.47 39.45 34.47 39.18 34.23 38.73C33.51 37.44 32.04 38.4 32.67 39.78C32.85 40.2 33 41.4 33 42.42C33 44.31 32.97 44.34 32.07 44.67C31.53 44.85 30.99 45 30.87 45C30.72 45 30.6 42.27 30.6 38.94V32.85L28.47 30.72L26.37 28.59L28.05 27.03C29.16 26.04 29.7 25.32 29.58 25.05C29.37 24.48 28.2 24.45 28.2 25.05C28.2 25.29 27.93 25.62 27.63 25.8C27.3 25.95 26.55 26.7 25.92 27.48L24.81 28.83L27.09 31.14L29.4 33.45V39.54C29.4 44.19 29.31 45.6 29.04 45.6C28.83 45.6 28.35 45.69 27.99 45.78L27.3 45.96V39.69V33.45L25.35 31.44C24.27 30.33 23.4 29.28 23.4 29.1C23.4 28.95 23.07 28.8 22.65 28.8C21.39 28.8 21.78 29.58 24 31.71L26.1 33.69L26.04 39.87L25.95 46.05L25.14 46.14C24.48 46.23 24.27 46.08 24.12 45.45C24 44.97 23.28 44.19 22.32 43.47C21.42 42.81 20.7 42.15 20.7 41.97C20.7 41.76 21.45 41.67 22.74 41.76C24.72 41.85 24.75 41.85 24.75 41.1C24.75 40.35 24.72 40.35 22.65 40.44C19.65 40.59 19.5 40.65 19.5 41.94C19.5 42.93 19.65 43.14 21.03 44.04C22.95 45.3 23.49 46.41 21.96 45.99C21.6 45.9 21.3 45.63 21.3 45.42C21.3 45.18 21.18 45 21.06 45C20.94 45 20.04 44.31 19.11 43.47C17.52 42.06 17.4 41.85 17.4 40.62V39.3H20.13C21.63 39.3 23.1 39.42 23.4 39.6C23.82 39.81 24.09 39.78 24.42 39.42C24.69 39.18 24.9 38.88 24.9 38.76C24.87 38.01 24.21 37.92 20.34 38.04L16.2 38.16V40.35V42.54L17.85 43.98C18.78 44.76 19.44 45.45 19.38 45.51C19.14 45.75 15.81 44.67 13.98 43.74C12.09 42.78 10.32 41.49 8.34002 39.63L7.20002 38.58V35.55V32.55L4.65002 29.7C1.80002 26.49 1.62002 26.04 1.92002 22.53C2.28002 18 3.90002 13.77 6.54002 10.41L7.89002 8.7H16.65H25.44L27.27 10.44C28.29 11.4 29.1 12.33 29.1 12.51C29.1 12.9 29.94 13.26 30.33 13.02C30.96 12.66 30.48 11.88 28.47 9.96L26.31 7.95L17.64 7.8L8.97002 7.65L10.44 6.51L11.91 5.4H18.93H25.95L28.35 7.8L30.72 10.17L32.67 8.31C34.71 6.39 35.19 5.52 34.38 5.22C34.08 5.1 33.39 5.61 32.34 6.75L30.75 8.43L28.65 6.33L26.55 4.2H20.4C16.23 4.2 14.4 4.11 14.7 3.9C15.36 3.45 19.02 2.37 20.79 2.07C23.1 1.71 27.48 2.01 29.97 2.7ZM4.98002 31.86C5.91002 32.85 6.00002 33.12 6.00002 34.8C6.00002 35.97 5.88002 36.57 5.70002 36.45C5.19002 36.15 3.42002 32.4 2.88002 30.6L2.40002 28.95L3.18002 29.85C3.60002 30.33 4.41002 31.23 4.98002 31.86ZM43.47 34.56C43.11 35.28 42.51 36.24 42.12 36.69L41.4 37.56V36.63C41.4 35.97 41.73 35.4 42.66 34.5C43.35 33.84 43.95 33.3 44.01 33.3C44.07 33.3 43.83 33.87 43.47 34.56Z" fill="#15406B"/>
<path d="M6.66001 11.16C6.45001 11.37 6.30001 11.67 6.30001 11.85C6.30001 12 5.82001 12.69 5.25001 13.35L4.20001 14.55V18.42C4.20001 22.86 4.68001 24.6 5.88001 24.6C6.96001 24.6 7.14001 23.43 6.18001 22.65C5.43001 22.05 5.40001 21.96 5.40001 18.45V14.88L6.75001 13.59C8.13001 12.3 8.46001 11.31 7.62001 10.98C7.02001 10.74 7.08001 10.74 6.66001 11.16Z" fill="#15406B"/>
<path d="M8.91005 26.61C8.55005 27.03 8.43005 28.05 8.37005 31.5C8.31005 33.9 8.40005 36.03 8.52005 36.24C8.76005 36.63 9.78005 36.72 9.99005 36.36C10.0801 36.24 10.0201 34.26 9.87005 31.95C9.60005 28.14 9.63005 27.72 10.1101 27.39C10.8001 26.85 15.57 26.85 15.75 27.36C15.81 27.57 15.93 29.37 16.02 31.32L16.17 34.92L13.74 37.17C12.39 38.43 11.04 39.54 10.74 39.66C9.84005 40.02 10.1401 41.22 11.19 41.34C11.73 41.4 12 41.31 12 41.04C12 40.8 13.23 39.42 14.73 37.95L17.46 35.25L17.34 31.17C17.28 28.32 17.13 26.94 16.83 26.58C16.2 25.83 9.60005 25.86 8.91005 26.61Z" fill="#15406B"/>
<path d="M11.34 29.01C11.01 29.4 10.83 30.39 10.77 32.55L10.65 35.55H11.4H12.15L12.03 32.64C11.94 30.15 12 29.67 12.42 29.52C13.26 29.19 13.8 29.97 13.8 31.47C13.8 32.25 13.65 33.03 13.5 33.18C12.99 33.69 13.5 34.5 14.28 34.5C15.12 34.5 15.57 33.75 15.03 33.21C14.85 33.03 14.7 32.07 14.7 31.05C14.7 30.03 14.55 29.07 14.34 28.86C13.8 28.32 11.88 28.41 11.34 29.01Z" fill="#15406B"/>
</g>
<defs>
<clipPath id="clip0_18496_17">
<rect width="48" height="48" fill="white"/>
</clipPath>
</defs>
</svg>
